<svg width="302" height="29" viewBox="0 0 302 29" fill="none" xmlns="http://www.w3.org/2000/svg">
<path d="M19.0451 9.77719C18.5642 8.89136 17.8682 8.22066 16.9571 7.76509C16.0712 7.28421 15.0209 7.04377 13.806 7.04377C11.7053 7.04377 10.0223 7.73978 8.75679 9.1318C7.49132 10.4985 6.85859 12.3334 6.85859 14.6366C6.85859 17.0916 7.51663 19.0151 8.83272 20.4072C10.1741 21.7739 12.0091 22.4572 14.3375 22.4572C15.932 22.4572 17.2734 22.0523 18.3617 21.2424C19.4753 20.4325 20.2852 19.2682 20.7914 17.7497H12.5532V12.9662H26.6759V19.0025C26.195 20.6223 25.3724 22.1282 24.2082 23.5202C23.0693 24.9122 21.614 26.0385 19.8423 26.899C18.0707 27.7596 16.0712 28.1898 13.844 28.1898C11.2118 28.1898 8.85803 27.6204 6.78266 26.4814C4.73259 25.3172 3.12544 23.71 1.96121 21.66C0.82228 19.6099 0.252818 17.2688 0.252818 14.6366C0.252818 12.0044 0.82228 9.6633 1.96121 7.61324C3.12544 5.53786 4.73259 3.93071 6.78266 2.79179C8.83272 1.62755 11.1738 1.04543 13.806 1.04543C16.995 1.04543 19.6778 1.81737 21.8544 3.36125C24.0564 4.90513 25.5117 7.04377 26.2203 9.77719H19.0451ZM42.8759 28.2657C40.3703 28.2657 38.0671 27.6836 35.9664 26.5194C33.8911 25.3552 32.2333 23.7354 30.9931 21.66C29.7783 19.5593 29.1708 17.2055 29.1708 14.5986C29.1708 11.9918 29.7783 9.65065 30.9931 7.57527C32.2333 5.4999 33.8911 3.88009 35.9664 2.71586C38.0671 1.55162 40.3703 0.969506 42.8759 0.969506C45.3815 0.969506 47.6721 1.55162 49.7474 2.71586C51.8481 3.88009 53.4932 5.4999 54.6828 7.57527C55.8976 9.65065 56.505 11.9918 56.505 14.5986C56.505 17.2055 55.8976 19.5593 54.6828 21.66C53.4679 23.7354 51.8228 25.3552 49.7474 26.5194C47.6721 27.6836 45.3815 28.2657 42.8759 28.2657ZM42.8759 22.3433C45.0019 22.3433 46.6976 21.6347 47.9631 20.2173C49.2539 18.8 49.8993 16.9271 49.8993 14.5986C49.8993 12.2449 49.2539 10.372 47.9631 8.97995C46.6976 7.56262 45.0019 6.85395 42.8759 6.85395C40.7246 6.85395 39.0036 7.54996 37.7128 8.94198C36.4473 10.334 35.8146 12.2196 35.8146 14.5986C35.8146 16.9524 36.4473 18.838 37.7128 20.2553C39.0036 21.6473 40.7246 22.3433 42.8759 22.3433ZM58.7879 6.32245V0.286151H69.304V28H62.5464V6.32245H58.7879ZM81.3345 14.6366C81.3345 12.0044 81.904 9.6633 83.0429 7.61324C84.1818 5.53786 85.7637 3.93071 87.7884 2.79179C89.8385 1.62755 92.1543 1.04543 94.7359 1.04543C97.8995 1.04543 100.608 1.88065 102.86 3.55107C105.113 5.22149 106.619 7.49934 107.378 10.3846H100.241C99.7092 9.27101 98.9499 8.42314 97.9628 7.84102C97.0011 7.2589 95.9001 6.96785 94.6599 6.96785C92.6605 6.96785 91.0407 7.66386 89.8005 9.05588C88.5604 10.4479 87.9403 12.3081 87.9403 14.6366C87.9403 16.9651 88.5604 18.8253 89.8005 20.2173C91.0407 21.6094 92.6605 22.3054 94.6599 22.3054C95.9001 22.3054 97.0011 22.0143 97.9628 21.4322C98.9499 20.8501 99.7092 20.0022 100.241 18.8886H107.378C106.619 21.7739 105.113 24.0517 102.86 25.7221C100.608 27.3673 97.8995 28.1898 94.7359 28.1898C92.1543 28.1898 89.8385 27.6204 87.7884 26.4814C85.7637 25.3172 84.1818 23.71 83.0429 21.66C81.904 19.6099 81.3345 17.2688 81.3345 14.6366ZM123.958 28.2657C121.452 28.2657 119.149 27.6836 117.048 26.5194C114.973 25.3552 113.315 23.7354 112.075 21.66C110.86 19.5593 110.253 17.2055 110.253 14.5986C110.253 11.9918 110.86 9.65065 112.075 7.57527C113.315 5.4999 114.973 3.88009 117.048 2.71586C119.149 1.55162 121.452 0.969506 123.958 0.969506C126.463 0.969506 128.754 1.55162 130.829 2.71586C132.93 3.88009 134.575 5.4999 135.764 7.57527C136.979 9.65065 137.587 11.9918 137.587 14.5986C137.587 17.2055 136.979 19.5593 135.764 21.66C134.55 23.7354 132.904 25.3552 130.829 26.5194C128.754 27.6836 126.463 28.2657 123.958 28.2657ZM123.958 22.3433C126.084 22.3433 127.779 21.6347 129.045 20.2173C130.336 18.8 130.981 16.9271 130.981 14.5986C130.981 12.2449 130.336 10.372 129.045 8.97995C127.779 7.56262 126.084 6.85395 123.958 6.85395C121.806 6.85395 120.085 7.54996 118.794 8.94198C117.529 10.334 116.896 12.2196 116.896 14.5986C116.896 16.9524 117.529 18.838 118.794 20.2553C120.085 21.6473 121.806 22.3433 123.958 22.3433ZM171.38 1.34915V28H164.888V12.0171L158.928 28H153.689L147.69 11.9791V28H141.198V1.34915H148.867L156.346 19.7997L163.749 1.34915H171.38ZM206.23 1.34915V28H199.738V12.0171L193.778 28H188.539L182.54 11.9791V28H176.048V1.34915H183.717L191.196 19.7997L198.599 1.34915H206.23ZM217.39 6.55024V11.9412H226.084V16.9524H217.39V22.7989H227.223V28H210.898V1.34915H227.223V6.55024H217.39ZM245.029 28L239.486 17.9395H237.929V28H231.437V1.34915H242.333C244.434 1.34915 246.218 1.71613 247.686 2.45011C249.179 3.18408 250.293 4.19646 251.027 5.48724C251.761 6.75271 252.128 8.17004 252.128 9.73923C252.128 11.5109 251.622 13.0927 250.609 14.4848C249.622 15.8768 248.154 16.8638 246.206 17.446L252.356 28H245.029ZM237.929 13.3458H241.954C243.143 13.3458 244.029 13.0548 244.611 12.4727C245.218 11.8905 245.522 11.068 245.522 10.005C245.522 8.9926 245.218 8.19535 244.611 7.61324C244.029 7.03112 243.143 6.74006 241.954 6.74006H237.929V13.3458ZM255.102 14.6366C255.102 12.0044 255.672 9.6633 256.811 7.61324C257.949 5.53786 259.531 3.93071 261.556 2.79179C263.606 1.62755 265.922 1.04543 268.504 1.04543C271.667 1.04543 274.375 1.88065 276.628 3.55107C278.88 5.22149 280.386 7.49934 281.146 10.3846H274.008C273.477 9.27101 272.718 8.42314 271.73 7.84102C270.769 7.2589 269.668 6.96785 268.428 6.96785C266.428 6.96785 264.808 7.66386 263.568 9.05588C262.328 10.4479 261.708 12.3081 261.708 14.6366C261.708 16.9651 262.328 18.8253 263.568 20.2173C264.808 21.6094 266.428 22.3054 268.428 22.3054C269.668 22.3054 270.769 22.0143 271.73 21.4322C272.718 20.8501 273.477 20.0022 274.008 18.8886H281.146C280.386 21.7739 278.88 24.0517 276.628 25.7221C274.375 27.3673 271.667 28.1898 268.504 28.1898C265.922 28.1898 263.606 27.6204 261.556 26.4814C259.531 25.3172 257.949 23.71 256.811 21.66C255.672 19.6099 255.102 17.2688 255.102 14.6366ZM291.613 6.55024V11.9412H300.307V16.9524H291.613V22.7989H301.446V28H285.121V1.34915H301.446V6.55024H291.613Z" fill="#212121"/>
</svg>
