<svg width="354" height="209" viewBox="0 0 354 209" fill="none" xmlns="http://www.w3.org/2000/svg">
<path d="M110.397 77.305C107.863 74.7714 108.225 71.5137 109.13 68.2561C109.492 67.1703 109.673 65.9034 109.311 64.6366C107.682 60.836 104.786 57.9404 101.167 56.1306C90.6701 51.2442 79.0875 53.2349 71.8484 62.4648C67.8668 67.7132 64.6092 73.1425 61.8946 79.1148C58.275 86.7159 53.2076 92.5072 46.1495 95.9458C36.0147 86.8969 29.6804 73.6855 29.6804 61.7409C29.6804 43.4621 70.2196 28.9838 89.9462 25.5453C95.1946 24.6404 100.805 23.0116 102.072 17.7632C103.339 12.3339 100.986 6.72353 96.2804 3.82787L93.3848 2.01809C91.0321 0.570266 88.3174 -0.153648 85.6027 0.0273305C53.0266 2.19907 0 26.4502 0 59.5692C0 90.1545 21.8984 121.464 50.8549 128.341C54.8364 129.608 58.9989 130.332 63.5234 130.694C76.9158 131.599 88.6793 127.617 97.5473 117.12C106.596 106.262 109.854 93.2311 111.121 79.4768C111.121 78.5719 110.94 77.848 110.397 77.305ZM89.7652 93.2311C87.7744 100.289 82.5261 105.9 75.6489 108.433C74.2011 108.976 72.7533 109.519 71.1245 110.062L72.5723 106.804C64.4283 106.804 56.8272 103.909 50.312 99.3844C52.1217 97.7556 53.9315 95.9458 55.7413 94.136C60.8087 89.6116 65.5141 84.5442 71.1245 80.2007C74.563 77.305 79.4495 76.4002 83.7929 77.848C89.7652 79.6578 91.9369 85.992 89.7652 93.2311ZM102.977 67.3512C101.891 66.9893 101.167 66.2654 100.805 65.1795C100.805 64.2746 101.891 63.1887 102.977 61.7409C104.243 63.3697 105.148 64.2746 105.329 65.3605C105.329 66.0844 103.701 67.5322 102.977 67.3512Z" fill="url(#paint0_linear_3799_31688)"/>
<path d="M119.803 70.7823L110.755 74.7638C110.574 72.0492 110.574 69.8774 110.393 66.8008L119.803 70.7823Z" fill="url(#paint1_linear_3799_31688)"/>
<path d="M28.9512 110.069C31.8468 109.164 34.7425 107.897 37.4572 106.449C42.5245 103.011 47.23 99.391 51.7544 95.2285C58.2696 89.2562 63.88 82.0171 72.205 78.3975C75.4626 76.9497 79.0821 76.4068 82.5207 76.7687C87.9501 77.4927 91.7506 82.3791 91.0267 87.6274C91.0267 87.6274 91.0267 87.6274 91.0267 87.8084V87.9894C89.9408 98.6671 83.7876 105.182 74.1957 109.164C64.061 113.145 53.5642 113.145 43.0675 112.24C38.362 111.879 33.8376 111.336 29.3131 110.793L28.9512 110.069Z" fill="url(#paint2_linear_3799_31688)"/>
<path d="M288.848 101.561H303.145V45.2766L288.848 46.3625V24.2832C294.277 24.1022 299.706 23.1973 304.955 21.3875C310.927 19.3967 316.537 16.6821 321.786 13.0625H339.703V101.561H354V126.536H289.029L288.848 101.561Z" fill="url(#paint3_linear_3799_31688)"/>
<path d="M255.359 71.1531C255.359 106.444 226.403 134.857 190.75 134.857C155.097 134.857 126.141 106.444 126.141 71.1531C126.141 35.8623 155.097 7.44873 190.75 7.44873C226.041 7.08678 254.997 35.5004 255.359 70.7911C255.359 70.9721 255.359 70.9721 255.359 71.1531ZM220.249 71.1531C220.43 54.865 207.4 41.2917 191.112 41.1107C174.824 40.9297 161.25 53.9601 161.069 70.2482C160.888 86.5362 173.919 100.11 190.207 100.291H190.75C206.857 100.472 220.068 87.4411 220.249 71.334V71.1531Z" fill="url(#paint4_linear_3799_31688)"/>
<rect x="43" y="148" width="311" height="61" rx="14" fill="url(#paint5_linear_3799_31688)"/>
<path d="M68.461 178.838C68.461 175.672 69.1154 172.856 70.4243 170.391C71.7635 167.895 73.6507 165.962 76.0857 164.593C78.5207 163.192 81.321 162.492 84.4865 162.492C88.5043 162.492 91.8829 163.573 94.6223 165.734C97.3617 167.865 99.1271 170.771 99.9185 174.454H90.2849C89.7066 173.237 88.9 172.309 87.8651 171.669C86.8607 171.03 85.6888 170.711 84.3496 170.711C82.2798 170.711 80.6209 171.456 79.373 172.948C78.1555 174.409 77.5467 176.372 77.5467 178.838C77.5467 181.333 78.1555 183.327 79.373 184.819C80.6209 186.28 82.2798 187.01 84.3496 187.01C85.6888 187.01 86.8607 186.69 87.8651 186.051C88.9 185.412 89.7066 184.484 90.2849 183.266H99.9185C99.1271 186.949 97.3617 189.871 94.6223 192.032C91.8829 194.163 88.5043 195.228 84.4865 195.228C81.321 195.228 78.5207 194.543 76.0857 193.174C73.6507 191.774 71.7635 189.841 70.4243 187.375C69.1154 184.879 68.461 182.033 68.461 178.838ZM116.072 195.32C113.516 195.32 111.218 194.787 109.178 193.722C107.169 192.656 105.587 191.134 104.43 189.156C103.273 187.177 102.695 184.849 102.695 182.17C102.695 179.522 103.273 177.209 104.43 175.231C105.617 173.252 107.215 171.73 109.224 170.665C111.263 169.6 113.561 169.067 116.118 169.067C118.675 169.067 120.958 169.6 122.967 170.665C125.006 171.73 126.604 173.252 127.761 175.231C128.948 177.209 129.541 179.522 129.541 182.17C129.541 184.819 128.948 187.147 127.761 189.156C126.604 191.134 125.006 192.656 122.967 193.722C120.927 194.787 118.629 195.32 116.072 195.32ZM116.072 187.558C117.32 187.558 118.355 187.101 119.177 186.188C120.029 185.245 120.455 183.905 120.455 182.17C120.455 180.436 120.029 179.111 119.177 178.198C118.355 177.285 117.336 176.829 116.118 176.829C114.901 176.829 113.881 177.285 113.059 178.198C112.237 179.111 111.826 180.436 111.826 182.17C111.826 183.936 112.222 185.275 113.013 186.188C113.805 187.101 114.824 187.558 116.072 187.558ZM166.648 169.158C169.875 169.158 172.401 170.132 174.227 172.08C176.084 174.028 177.012 176.692 177.012 180.07V195H168.064V181.257C168.064 179.888 167.683 178.822 166.922 178.061C166.161 177.3 165.126 176.92 163.818 176.92C162.509 176.92 161.474 177.3 160.713 178.061C159.952 178.822 159.572 179.888 159.572 181.257V195H150.623V181.257C150.623 179.888 150.242 178.822 149.481 178.061C148.751 177.3 147.731 176.92 146.422 176.92C145.083 176.92 144.033 177.3 143.272 178.061C142.511 178.822 142.131 179.888 142.131 181.257V195H133.182V169.387H142.131V172.765C142.922 171.669 143.942 170.802 145.19 170.163C146.468 169.493 147.929 169.158 149.573 169.158C151.46 169.158 153.134 169.569 154.595 170.391C156.086 171.213 157.258 172.369 158.111 173.861C159.024 172.461 160.226 171.335 161.717 170.482C163.209 169.6 164.852 169.158 166.648 169.158ZM215.382 169.158C218.608 169.158 221.134 170.132 222.961 172.08C224.817 174.028 225.746 176.692 225.746 180.07V195H216.797V181.257C216.797 179.888 216.416 178.822 215.655 178.061C214.895 177.3 213.86 176.92 212.551 176.92C211.242 176.92 210.207 177.3 209.446 178.061C208.685 178.822 208.305 179.888 208.305 181.257V195H199.356V181.257C199.356 179.888 198.976 178.822 198.215 178.061C197.484 177.3 196.464 176.92 195.156 176.92C193.816 176.92 192.766 177.3 192.005 178.061C191.244 178.822 190.864 179.888 190.864 181.257V195H181.915V169.387H190.864V172.765C191.655 171.669 192.675 170.802 193.923 170.163C195.201 169.493 196.662 169.158 198.306 169.158C200.193 169.158 201.867 169.569 203.328 170.391C204.82 171.213 205.991 172.369 206.844 173.861C207.757 172.461 208.959 171.335 210.451 170.482C211.942 169.6 213.586 169.158 215.382 169.158ZM255.12 181.897C255.12 182.597 255.075 183.297 254.983 183.997H238.045C238.136 185.397 238.517 186.447 239.186 187.147C239.886 187.817 240.769 188.151 241.834 188.151C243.326 188.151 244.391 187.482 245.03 186.143H254.572C254.177 187.908 253.401 189.491 252.244 190.891C251.118 192.261 249.687 193.341 247.952 194.133C246.217 194.924 244.3 195.32 242.199 195.32C239.673 195.32 237.421 194.787 235.442 193.722C233.494 192.656 231.957 191.134 230.831 189.156C229.735 187.177 229.187 184.849 229.187 182.17C229.187 179.492 229.735 177.179 230.831 175.231C231.927 173.252 233.449 171.73 235.397 170.665C237.375 169.6 239.643 169.067 242.199 169.067C244.726 169.067 246.963 169.584 248.911 170.619C250.859 171.654 252.381 173.146 253.477 175.094C254.572 177.011 255.12 179.279 255.12 181.897ZM245.989 179.659C245.989 178.564 245.624 177.711 244.893 177.103C244.163 176.463 243.25 176.144 242.154 176.144C241.058 176.144 240.16 176.448 239.46 177.057C238.76 177.635 238.303 178.503 238.09 179.659H245.989ZM267.731 173.907C268.736 172.446 269.953 171.289 271.384 170.437C272.814 169.584 274.351 169.158 275.995 169.158V178.701H273.484C271.536 178.701 270.09 179.081 269.147 179.842C268.203 180.603 267.731 181.927 267.731 183.814V195H258.783V169.387H267.731V173.907ZM277.742 182.17C277.742 179.522 278.29 177.209 279.386 175.231C280.482 173.252 282.003 171.73 283.952 170.665C285.93 169.6 288.182 169.067 290.709 169.067C293.966 169.067 296.705 169.965 298.927 171.761C301.149 173.526 302.579 176.007 303.219 179.203H293.722C293.174 177.529 292.109 176.692 290.526 176.692C289.4 176.692 288.502 177.163 287.832 178.107C287.193 179.02 286.874 180.375 286.874 182.17C286.874 183.966 287.193 185.336 287.832 186.28C288.502 187.223 289.4 187.695 290.526 187.695C292.139 187.695 293.205 186.858 293.722 185.184H303.219C302.579 188.349 301.149 190.83 298.927 192.626C296.705 194.422 293.966 195.32 290.709 195.32C288.182 195.32 285.93 194.787 283.952 193.722C282.003 192.656 280.482 191.134 279.386 189.156C278.29 187.177 277.742 184.849 277.742 182.17ZM331.408 181.897C331.408 182.597 331.362 183.297 331.271 183.997H314.332C314.424 185.397 314.804 186.447 315.474 187.147C316.174 187.817 317.057 188.151 318.122 188.151C319.613 188.151 320.679 187.482 321.318 186.143H330.86C330.465 187.908 329.688 189.491 328.532 190.891C327.406 192.261 325.975 193.341 324.24 194.133C322.505 194.924 320.587 195.32 318.487 195.32C315.961 195.32 313.709 194.787 311.73 193.722C309.782 192.656 308.245 191.134 307.119 189.156C306.023 187.177 305.475 184.849 305.475 182.17C305.475 179.492 306.023 177.179 307.119 175.231C308.214 173.252 309.736 171.73 311.684 170.665C313.663 169.6 315.93 169.067 318.487 169.067C321.014 169.067 323.251 169.584 325.199 170.619C327.147 171.654 328.669 173.146 329.764 175.094C330.86 177.011 331.408 179.279 331.408 181.897ZM322.277 179.659C322.277 178.564 321.912 177.711 321.181 177.103C320.45 176.463 319.537 176.144 318.442 176.144C317.346 176.144 316.448 176.448 315.748 177.057C315.048 177.635 314.591 178.503 314.378 179.659H322.277Z" fill="white"/>
<defs>
<linearGradient id="paint0_linear_3799_31688" x1="8.84796e-06" y1="65.3367" x2="110.731" y2="65.3367" gradientUnits="userSpaceOnUse">
<stop stop-color="#3D215B"/>
<stop offset="1" stop-color="#5B2569"/>
</linearGradient>
<linearGradient id="paint1_linear_3799_31688" x1="110.393" y1="70.7779" x2="119.77" y2="70.7779" gradientUnits="userSpaceOnUse">
<stop stop-color="#3D215B"/>
<stop offset="1" stop-color="#5B2569"/>
</linearGradient>
<linearGradient id="paint2_linear_3799_31688" x1="28.853" y1="94.6204" x2="90.6516" y2="94.6204" gradientUnits="userSpaceOnUse">
<stop stop-color="#8EBB41"/>
<stop offset="0.05" stop-color="#A3B33A"/>
<stop offset="0.16" stop-color="#C3A12E"/>
<stop offset="0.26" stop-color="#DB9728"/>
<stop offset="0.36" stop-color="#E98D24"/>
<stop offset="0.44" stop-color="#EC8B23"/>
<stop offset="0.51" stop-color="#EB8523"/>
<stop offset="0.62" stop-color="#EC7033"/>
<stop offset="0.76" stop-color="#E8514D"/>
<stop offset="0.91" stop-color="#E4236E"/>
<stop offset="1" stop-color="#E30783"/>
</linearGradient>
<linearGradient id="paint3_linear_3799_31688" x1="288.955" y1="69.7992" x2="354.108" y2="69.7992" gradientUnits="userSpaceOnUse">
<stop stop-color="#EE3B6B"/>
<stop offset="1" stop-color="#F47951"/>
</linearGradient>
<linearGradient id="paint4_linear_3799_31688" x1="126.141" y1="71.0809" x2="254.905" y2="71.0809" gradientUnits="userSpaceOnUse">
<stop stop-color="#3D215B"/>
<stop offset="1" stop-color="#5B2569"/>
</linearGradient>
<linearGradient id="paint5_linear_3799_31688" x1="42.0851" y1="178.5" x2="353.085" y2="178.5" gradientUnits="userSpaceOnUse">
<stop stop-color="#8EBB41"/>
<stop offset="0.05" stop-color="#A3B33A"/>
<stop offset="0.16" stop-color="#C3A12E"/>
<stop offset="0.26" stop-color="#DB9728"/>
<stop offset="0.36" stop-color="#E98D24"/>
<stop offset="0.44" stop-color="#EC8B23"/>
<stop offset="0.51" stop-color="#EB8523"/>
<stop offset="0.62" stop-color="#EC7033"/>
<stop offset="0.76" stop-color="#E8514D"/>
<stop offset="0.91" stop-color="#E4236E"/>
<stop offset="1" stop-color="#E30783"/>
</linearGradient>
</defs>
</svg>
