<?xml version="1.0" encoding="utf-8"?>
<!-- Generator: Adobe Illustrator 18.1.1, SVG Export Plug-In . SVG Version: 6.00 Build 0)  -->
<svg version="1.1" id="Layer_1" xmlns="http://www.w3.org/2000/svg" xmlns:xlink="http://www.w3.org/1999/xlink" x="0px" y="0px"
	 viewBox="0 0 100 100" enable-background="new 0 0 100 100" xml:space="preserve">
<path fill="#273983" d="M52.2,96.4C27.2,96.4,7,70.6,7,45.7c0-23.9,38.2-41.4,61.7-43c1.9-0.1,3.9,0.3,5.6,1.4l2.2,1.3
	c3.5,2.1,5.1,6.2,4.2,10.1l0,0c-0.9,3.8-5,5-8.8,5.6C57.8,23.6,28.5,34,28.5,47.2c0,14.9,13.7,32.6,31,32.6"/>
<path fill="#273983" d="M22.8,74.6c3.8-0.2,7.8,0,11.5-0.6c8.3-1.5,13.9-6.7,17.5-14.3c1.9-4.2,4.3-8.3,7.1-12
	c5.2-6.6,13.5-8.1,21.1-4.5c2.7,1.2,4.8,3.5,5.7,6.2c0.2,0.9,0.1,1.7-0.1,2.5c-0.6,2.4-0.9,4.7,1,6.6c0.3,0.4,0.5,0.9,0.5,1.4
	c-0.9,10-3.2,19.4-9.9,27.2c-6.4,7.7-14.8,10.5-24.6,9.9c-14.2-1.1-24.5-7.9-29.8-21.3C22.8,75.3,22.8,75,22.8,74.6z M30,82.4
	c10.9,1.6,21.4,2.5,31.6-1.5c5-1.8,8.8-5.8,10.2-10.9c1.6-5.2,0-9.7-4.3-11.2c-3.1-1.1-6.5-0.4-9.1,1.6c-4,3.1-7.5,6.7-11.2,10.1
	c-2.7,2.7-5.5,5.2-8.4,7.6C35.9,79.7,33,81.1,30,82.4z M81.4,47.2c-0.8,1.1-1.6,1.8-1.5,2.5c0.2,0.8,0.9,1.3,1.6,1.5
	c0.4,0.1,1.6-1,1.5-1.4C82.9,49.1,82.2,48.4,81.4,47.2z"/>
<path fill="#273983" d="M93.4,53.7l-6.5,2.9c-0.1-1.9-0.1-3.6-0.2-5.7L93.4,53.7"/>
<linearGradient id="SVGID_1_" gradientUnits="userSpaceOnUse" x1="27.9251" y1="71.1383" x2="72.6646" y2="71.1383">
	<stop  offset="0" style="stop-color:#8EBB40"/>
	<stop  offset="5.000000e-002" style="stop-color:#A2B239"/>
	<stop  offset="0.16" style="stop-color:#C3A12E"/>
	<stop  offset="0.26" style="stop-color:#DB9628"/>
	<stop  offset="0.36" style="stop-color:#E98D24"/>
	<stop  offset="0.44" style="stop-color:#ED8B22"/>
	<stop  offset="0.51" style="stop-color:#EC8423"/>
	<stop  offset="0.62" style="stop-color:#EC7033"/>
	<stop  offset="0.76" style="stop-color:#E9504C"/>
	<stop  offset="0.91" style="stop-color:#E4216D"/>
	<stop  offset="1" style="stop-color:#E30783"/>
</linearGradient>
<path fill="url(#SVGID_1_)" d="M27.9,82.1c2.1-0.9,4.3-1.4,6.2-2.6c3.6-2.4,7-5.1,10.3-8c4.7-4.3,8.8-9.5,14.7-12.1
	c2.4-1,4.9-1.4,7.5-1.2c4,0.4,6.4,4.1,6.1,8.1c-0.8,7.6-5.2,12.4-12.1,15.3c-7.3,2.8-14.8,2.8-22.4,2.4c-3.4-0.2-6.7-0.6-10-1.1
	L27.9,82.1z"/>
</svg>
