<svg width="91" height="80" viewBox="0 0 91 80" fill="none" xmlns="http://www.w3.org/2000/svg">
<path fill-rule="evenodd" clip-rule="evenodd" d="M25.1903 67.6566H65.591C68.6574 67.6566 71.0798 65.0549 70.8613 61.9963L70.1255 51.695C70.0749 51.6986 70.0238 51.7004 69.9722 51.7004H60.916C59.7251 51.7004 58.7597 50.735 58.7597 49.5441C58.7597 48.3533 59.7251 47.3879 60.916 47.3879H69.8179L69.0287 36.3389C68.8312 33.5739 66.5304 31.4316 63.7583 31.4316H58.3281H32.4531H27.023C24.2509 31.4316 21.9501 33.5738 21.7526 36.3389L20.9634 47.3879H29.866C31.0568 47.3879 32.0222 48.3533 32.0222 49.5441C32.0222 50.735 31.0568 51.7004 29.866 51.7004H20.8097C20.7579 51.7004 20.7066 51.6986 20.6558 51.695L19.9199 61.9963C19.7015 65.0549 22.1239 67.6566 25.1903 67.6566ZM54.0118 41.6755L53.5906 42.3074C53.4592 42.5044 53.1897 42.5501 52.996 42.4138C51.4309 41.3128 49.6521 40.5517 47.5051 40.5517C44.6176 40.5517 39.0246 43.066 40.1491 50.4514C40.9741 55.8698 47.1614 57.5197 51.63 56.2263V50.4514H47.9175C47.6897 50.4514 47.5051 50.2667 47.5051 50.0389V49.214C47.5051 48.9861 47.6897 48.8015 47.9175 48.8015H54.5174C54.7452 48.8015 54.9299 48.9861 54.9299 49.214V57.4637C47.7071 59.3652 38.6323 59.3652 36.7804 51.6889C35.8885 47.992 36.3806 41.7865 42.5552 39.3143C47.4961 37.3361 52.4782 39.5686 53.9879 41.2105C54.1063 41.3393 54.1088 41.53 54.0118 41.6755Z" fill="#AEAEAE"/>
<path d="M45.1207 19.5C30.8894 19.5 32.1538 34.1769 32.1538 34.1769H58.0288C58.0288 34.1769 59.3519 19.5 45.1207 19.5Z" stroke="#AEAEAE" stroke-width="4.3125" stroke-linecap="round"/>
<path d="M16.0074 26.0147C16.0074 21.0404 11.9743 17.0074 7 17.0074C11.9743 17.0074 16.0074 12.9743 16.0074 8C16.0074 12.9743 20.0404 17.0074 25.0147 17.0074C20.0404 17.0074 16.0074 21.0404 16.0074 26.0147Z" fill="#6A6A6A"/>
<path d="M7.23955 51.1085C6.91586 51.1788 6.32484 51.3899 5.93082 51.587C1.99042 53.5853 2.03265 59.2284 6.00115 61.1845C6.76108 61.5645 6.95809 61.5927 8.37945 61.5927C9.87114 61.5927 9.95559 61.5785 10.814 61.1142C11.8695 60.5372 12.7139 59.6647 13.2064 58.5952C13.5441 57.8915 13.5863 57.6242 13.5863 56.3154C13.5863 54.9222 13.5582 54.7814 13.1361 53.9793C12.0243 51.8403 9.51935 50.6159 7.23955 51.1085ZM9.0831 53.3742C9.85709 53.5712 10.8 54.3593 11.1377 55.1051C11.6865 56.3013 11.3629 57.8071 10.3778 58.6655C9.71636 59.2425 9.02683 59.4536 8.02766 59.3832C6.57812 59.2847 5.4383 58.1589 5.25534 56.6391C5.12866 55.5132 5.81819 54.2045 6.83148 53.6838C7.73214 53.2053 8.18244 53.149 9.0831 53.3742Z" fill="#6A6A6A"/>
<path d="M81.3223 37.3369H81.3463" stroke="#6A6A6A" stroke-width="4.45688" stroke-linecap="round" stroke-linejoin="round"/>
<path d="M87.1346 66.4555L79 69.9308M81.6601 64L84.4745 72.3862" stroke="#6A6A6A" stroke-width="2" stroke-linecap="round"/>
</svg>
