<svg width="81" height="99" viewBox="0 0 81 99" fill="none" xmlns="http://www.w3.org/2000/svg">
<g clip-path="url(#clip0_84_5129)">
<mask id="mask0_84_5129" style="mask-type:luminance" maskUnits="userSpaceOnUse" x="0" y="0" width="81" height="99">
<path d="M80.7705 0H0.730469V98.48H80.7705V0Z" fill="white"/>
</mask>
<g mask="url(#mask0_84_5129)">
<path d="M1.9202 0.410479C1.77276 0.580614 1.66666 0.782542 1.6102 1.00048C1.54859 1.21817 1.53158 1.44606 1.5602 1.67048C1.57979 1.89405 1.65173 2.10987 1.7702 2.30048C1.87991 2.4962 2.02583 2.66927 2.2002 2.81048L2.8602 3.48048L2.2002 4.16048C0.430194 6.00048 2.5102 8.00048 4.4202 6.35048L5.1102 5.73048L5.7202 6.35048C5.88945 6.53939 6.09753 6.68948 6.3302 6.79048C6.55798 6.91513 6.8109 6.9869 7.0702 7.00048C8.5902 7.00048 9.0702 5.48048 7.9502 4.21048L7.3602 3.53048L8.0002 2.81048C9.0702 1.54048 8.5902 0.000479436 7.0702 0.000479436C6.81592 -7.81442e-05 6.56418 0.0509509 6.3302 0.150479C6.09707 0.255212 5.88907 0.408652 5.7202 0.600479L5.1102 1.21048L4.4202 0.620479C4.10955 0.268524 3.67732 0.0470481 3.2102 0.000479436C2.74286 -0.0391644 2.27889 0.108298 1.9202 0.410479Z" fill="#6A6A6A"/>
<path d="M32.1603 5.55055C31.5744 5.70009 31.0049 5.90779 30.4602 6.17055C29.3074 6.76239 28.3415 7.66264 27.6701 8.77102C26.9986 9.8794 26.6481 11.1524 26.6574 12.4483C26.6667 13.7441 27.0356 15.0119 27.7229 16.1105C28.4102 17.2091 29.389 18.0954 30.5502 18.6706C31.5502 19.1606 31.7902 19.2006 33.6402 19.2006C35.4902 19.2006 35.7003 19.2006 36.8103 18.5806C38.1767 17.8523 39.2711 16.7017 39.9303 15.3006C40.3864 14.3709 40.5569 13.327 40.4202 12.3006C40.4202 10.4906 40.4202 10.3006 39.8403 9.30055C39.1294 7.93689 37.9995 6.83749 36.6169 6.1642C35.2344 5.49091 33.6721 5.27931 32.1603 5.56055V5.55055ZM34.5603 8.55055C35.712 8.92393 36.6731 9.73088 37.2403 10.8006C37.5799 11.5814 37.6661 12.4491 37.4867 13.2814C37.3073 14.1138 36.8714 14.869 36.2403 15.4406C35.8271 15.8075 35.3392 16.0805 34.8103 16.2406C34.283 16.403 33.7265 16.4473 33.1803 16.3706C32.2528 16.3005 31.3805 15.903 30.7192 15.249C30.0579 14.595 29.6506 13.7272 29.5702 12.8006C29.5093 12.0307 29.6726 11.2597 30.0403 10.5806C30.3961 9.87822 30.9486 9.29453 31.6302 8.90055C32.0579 8.61787 32.5428 8.43345 33.0502 8.36055C33.5577 8.29153 34.0742 8.33942 34.5603 8.50055V8.55055Z" fill="#6A6A6A"/>
<path d="M14.651 7.41009C13.5693 7.72259 12.6048 8.34954 11.8801 9.21131C11.1555 10.0731 10.7033 11.1308 10.581 12.2501C10.4557 13.3692 10.6677 14.5003 11.1897 15.4981C11.7118 16.4959 12.5201 17.3149 13.511 17.8501C14.3206 18.3438 15.2659 18.5679 16.211 18.4901C17.0057 18.5409 17.8011 18.4035 18.5326 18.089C19.2642 17.7745 19.9112 17.2918 20.421 16.6801C20.937 16.1133 21.3253 15.4424 21.5599 14.7127C21.7946 13.9829 21.8699 13.2114 21.781 12.4501C21.7709 11.7674 21.621 11.094 21.3407 10.4714C21.0603 9.84879 20.6555 9.29022 20.151 8.83009C19.4258 8.15286 18.5425 7.66809 17.5817 7.42004C16.621 7.17199 15.6134 7.16857 14.651 7.41009ZM16.841 10.4101C19.651 11.2001 19.151 15.4101 16.241 15.4101C15.7454 15.4266 15.2567 15.2905 14.841 15.0201C14.4247 14.7567 14.1026 14.3681 13.921 13.9101C13.7468 13.6043 13.6474 13.2616 13.631 12.9101C13.5996 12.5695 13.6511 12.2264 13.781 11.9101C13.9008 11.5921 14.0893 11.3044 14.333 11.0676C14.5767 10.8308 14.8697 10.6507 15.191 10.5401C16.091 10.1601 16.001 10.1801 16.841 10.4101Z" fill="#6A6A6A"/>
<path d="M71.8707 59.07C70.5536 59.7216 69.4961 60.8002 68.8707 62.13C68.5357 62.9255 68.3951 63.7894 68.4607 64.65C68.3725 65.5931 68.5601 66.5415 69.0007 67.38C69.4445 68.2741 70.0918 69.0516 70.8907 69.65C72.0974 70.5509 73.587 70.9898 75.0894 70.8871C76.5919 70.7843 78.0078 70.1468 79.0807 69.09C79.6919 68.5414 80.1648 67.8561 80.4607 67.09C80.7575 66.3201 80.8639 65.4899 80.7707 64.67C80.9029 63.7018 80.7206 62.7168 80.2507 61.86C79.4866 60.5214 78.307 59.4682 76.8907 58.86C76.118 58.6518 75.321 58.5475 74.5207 58.55C73.6051 58.4505 72.6808 58.6319 71.8707 59.07ZM76.4307 62.07C76.9258 62.4135 77.3113 62.8927 77.5407 63.45C77.7775 64.0083 77.8436 64.6242 77.7307 65.22C77.6214 65.8155 77.3437 66.3673 76.9307 66.81C76.5146 67.2498 75.9795 67.559 75.3907 67.7C74.9198 67.8048 74.4316 67.8048 73.9607 67.7C73.4936 67.5846 73.057 67.3697 72.6807 67.07C72.3052 66.7748 72.001 66.3989 71.7907 65.97C71.5756 65.5407 71.4562 65.0699 71.4407 64.59C71.5577 63.6055 72.0481 62.7035 72.8107 62.07C73.3414 61.6992 73.9733 61.5003 74.6207 61.5003C75.2682 61.5003 75.9 61.6992 76.4307 62.07Z" fill="#6A6A6A"/>
<path d="M20.0903 85.0009C19.4403 85.6609 19.5703 86.6209 20.4603 87.5609L21.2103 88.3709L20.4603 89.1809C19.5503 90.1809 19.4603 91.0409 20.1503 91.7009C20.8403 92.3609 21.8003 92.2709 22.6903 91.3509L23.4203 90.6009L24.2503 91.3509C24.4334 91.5759 24.6616 91.7598 24.9203 91.8909C25.1785 92.023 25.4609 92.1013 25.7503 92.1209C26.1144 92.1253 26.4685 92.0014 26.7503 91.7709C27.0405 91.5352 27.2329 91.2003 27.2903 90.8309C27.3903 90.2909 27.2903 90.1009 26.5403 89.2909L25.6603 88.3509L26.4103 87.5809C27.4103 86.6409 27.5403 85.8709 26.9803 85.1409C26.8548 84.9519 26.6778 84.8027 26.4703 84.7109C26.2627 84.6213 26.0344 84.5902 25.8103 84.6209C25.2003 84.6209 24.9103 84.7509 24.2203 85.3909L23.3903 86.1409L22.6603 85.3909C22.0403 84.7509 21.7703 84.6209 21.1803 84.6209C20.977 84.6068 20.7729 84.634 20.5803 84.7009C20.401 84.772 20.2352 84.8735 20.0903 85.0009Z" fill="#6A6A6A"/>
<path d="M5.55065 86.1708C4.61284 86.4255 3.74235 86.8829 3.00065 87.5108C2.23948 88.1374 1.61928 88.9178 1.18065 89.8008C0.538744 91.5071 0.581744 93.3955 1.30065 95.0708C1.92817 96.308 2.93341 97.3133 4.17065 97.9408C5.74563 98.5588 7.4777 98.6534 9.11065 98.2108C10.5695 97.6078 11.7818 96.5295 12.5507 95.1508C13.0102 94.2903 13.1918 93.3087 13.0707 92.3408C13.1806 91.3926 13.0212 90.4326 12.6107 89.5708C12.1162 88.5823 11.3713 87.7408 10.4501 87.1302C9.52886 86.5195 8.46362 86.1611 7.36065 86.0908C6.75633 86.0423 6.14833 86.0692 5.55065 86.1708ZM8.65065 89.6508C9.32823 90.1005 9.81053 90.79 10.0007 91.5808C10.1791 92.3684 10.0617 93.1942 9.67065 93.9008C9.39091 94.3589 8.99842 94.7376 8.53065 95.0008C8.06765 95.2781 7.54026 95.4298 7.00065 95.4408C6.46863 95.462 5.94055 95.3411 5.47065 95.0908C4.99827 94.8347 4.60164 94.4588 4.32065 94.0008C4.05708 93.6176 3.88281 93.1802 3.81065 92.7208C3.74669 92.2616 3.78424 91.7939 3.92065 91.3508C4.05664 90.9002 4.29281 90.4863 4.61145 90.1399C4.9301 89.7936 5.32297 89.5238 5.76065 89.3508C6.2218 89.1451 6.72742 89.0591 7.23065 89.1008C7.74341 89.1589 8.2325 89.3484 8.65065 89.6508Z" fill="#6A6A6A"/>
<path d="M60.1906 34.4109C60.1906 34.3509 60.1906 34.3209 60.1906 34.2909C60.1407 34.1628 60.0805 34.0391 60.0106 33.9209C59.9498 33.7999 59.8516 33.7017 59.7306 33.6409C59.6672 33.5825 59.5923 33.5382 59.5106 33.5109C59.4506 33.4509 59.3606 33.4509 59.3006 33.4209L59.0006 33.2709L31.5606 24.1209L31.3706 24.0609C31.2251 23.9982 31.0689 23.9643 30.9106 23.9609H30.8506C30.689 23.9642 30.5295 23.9982 30.3806 24.0609L30.2006 24.1209L16.5906 28.6609L16.3806 28.7209L2.71057 33.2709L2.56057 33.3309C2.50057 33.3309 2.40057 33.3309 2.34057 33.4209L2.15057 33.5209C2.0858 33.5499 2.02811 33.5927 1.98149 33.6462C1.93487 33.6997 1.90044 33.7627 1.88057 33.8309C1.74213 33.9639 1.64493 34.134 1.60057 34.3209C1.56101 34.4608 1.54082 34.6055 1.54057 34.7509V65.7009C1.53184 66.0236 1.63031 66.3401 1.82057 66.6009C2.00961 66.8641 2.2803 67.0574 2.59057 67.1509L30.2906 76.4009H30.3406C30.6627 76.523 31.0184 76.523 31.3406 76.4009H31.4306L59.2006 67.1509C59.5212 67.062 59.8028 66.8684 60.0006 66.6009C60.1898 66.339 60.2914 66.024 60.2906 65.7009V34.7809C60.2672 34.655 60.2338 34.5313 60.1906 34.4109ZM17.0006 31.7509L21.8606 30.1509L30.9206 27.1509L53.9206 34.8109L44.8606 37.8109L40.0106 39.4209L30.9506 42.4209L31.2606 42.5109C31.0558 42.4709 30.8453 42.4709 30.6406 42.5109L30.9506 42.4209L7.95057 34.7509L17.0006 31.7509ZM4.60057 36.9209L29.3306 45.1709V72.8409L4.60057 64.5909V36.9209ZM57.1606 64.5909L32.4206 72.8409V45.1709L45.1606 40.9109C45.2379 40.9028 45.3128 40.879 45.3806 40.8409L57.1606 36.9209V64.5909Z" fill="#AEAEAE"/>
<path d="M44.791 37.8104L39.941 39.4204L17.001 31.7504L21.861 30.1504L44.791 37.8104Z" fill="#AEAEAE"/>
</g>
</g>
<defs>
<clipPath id="clip0_84_5129">
<rect width="81" height="99" fill="white"/>
</clipPath>
</defs>
</svg>
