<svg width="101" height="102" viewBox="0 0 101 102" fill="none" xmlns="http://www.w3.org/2000/svg">
<path d="M15.5505 1.67044C15.4004 1.8544 15.2908 2.06792 15.2288 2.29708C15.1667 2.52624 15.1537 2.7659 15.1905 3.00044C15.2158 3.2274 15.2864 3.44697 15.3981 3.6462C15.5097 3.84543 15.6601 4.02029 15.8405 4.16044L16.5105 4.84044L15.8405 5.53044C14.0505 7.38044 16.1605 9.45044 18.0905 7.75044L18.7905 7.13044L19.4205 7.75044C19.5905 7.94777 19.8023 8.10488 20.0405 8.21044C20.2777 8.31076 20.5329 8.36179 20.7905 8.36044C22.3305 8.36044 22.7905 6.82044 21.6805 5.53044L21.0805 4.84044L21.6805 4.16044C22.8205 2.87044 22.3305 1.33044 20.7905 1.33044C20.5329 1.32908 20.2777 1.38011 20.0405 1.48044C19.8049 1.58604 19.5939 1.73926 19.4205 1.93044L18.7905 2.56044L18.0905 1.93044C17.7726 1.5785 17.333 1.36046 16.8605 1.32044C16.3951 1.26506 15.9262 1.39033 15.5505 1.67044Z" fill="#6A6A6A"/>
<path d="M46.2603 6.88968C45.6655 7.04604 45.0864 7.25693 44.5303 7.51968C43.3586 8.12129 42.3758 9.03489 41.6903 10.1597C41.1767 11.0006 40.8443 11.9394 40.7142 12.9162C40.5842 13.8929 40.6595 14.886 40.9353 15.832C41.2111 16.7779 41.6813 17.6559 42.3158 18.4097C42.9504 19.1635 43.7353 19.7766 44.6203 20.2097C45.6203 20.7197 45.8903 20.7497 47.7703 20.7497C49.6503 20.7497 49.8503 20.7497 50.9903 20.1197C52.3731 19.3767 53.4807 18.2095 54.1503 16.7897C54.6065 15.8601 54.7803 14.8171 54.6503 13.7897C54.6503 11.9397 54.6503 11.7897 54.0603 10.6997C53.334 9.31848 52.1859 8.20512 50.783 7.52166C49.3801 6.83819 47.7957 6.6203 46.2603 6.89968V6.88968ZM48.7003 9.88968C49.8698 10.2712 50.8452 11.0924 51.4203 12.1797C51.7709 12.9684 51.863 13.8479 51.6833 14.6921C51.5037 15.5363 51.0616 16.302 50.4203 16.8797C50.0135 17.2547 49.5285 17.5348 49.0003 17.6997C48.463 17.863 47.8966 17.9074 47.3403 17.8297C46.4002 17.7533 45.5173 17.3471 44.8476 16.6829C44.1779 16.0187 43.7645 15.1392 43.6803 14.1997C43.6256 13.4199 43.7917 12.6404 44.1595 11.9506C44.5274 11.2609 45.0822 10.6887 45.7603 10.2997C46.1954 10.0057 46.6923 9.81569 47.2125 9.74459C47.7327 9.67349 48.2624 9.72314 48.7603 9.88968H48.7003Z" fill="#6A6A6A"/>
<path d="M28.4802 8.78011C27.3813 9.09642 26.4014 9.73265 25.6654 10.6077C24.9293 11.4828 24.4704 12.5572 24.3471 13.6941C24.2237 14.8309 24.4416 15.9787 24.9728 16.9913C25.5041 18.0039 26.3247 18.8355 27.3302 19.3801C28.1479 19.8815 29.1042 20.1092 30.0602 20.0301C30.8681 20.0808 31.6766 19.9403 32.4202 19.6201C33.1625 19.2989 33.8198 18.8093 34.3402 18.1901C34.8688 17.6165 35.2648 16.9337 35.5002 16.1901C35.7404 15.4487 35.8188 14.6644 35.7302 13.8901C35.7185 13.196 35.5652 12.5116 35.2798 11.8788C34.9943 11.246 34.5827 10.6782 34.0702 10.2101C33.3341 9.52182 32.4364 9.03002 31.4602 8.78011C30.4832 8.52512 29.4571 8.52512 28.4802 8.78011ZM30.7102 11.7801C33.5602 12.5901 33.0502 16.8601 30.1002 16.8601C29.5976 16.8828 29.1006 16.7463 28.6802 16.4701C28.2572 16.2 27.9288 15.8051 27.7402 15.3401C27.5673 15.0337 27.468 14.6914 27.4502 14.3401C27.4228 14.0005 27.4706 13.6591 27.5902 13.3401C27.7182 13.0198 27.9124 12.7301 28.1602 12.4901C28.4009 12.2672 28.6877 12.0999 29.0002 12.0001C29.9402 11.5701 29.8302 11.5901 30.7102 11.8201V11.7801Z" fill="#6A6A6A"/>
<path d="M86.5804 61.2301C85.2671 61.9107 84.2132 63.0032 83.5804 64.3401C83.25 65.1509 83.1097 66.0267 83.1704 66.9001C83.0797 67.8574 83.2709 68.8202 83.7204 69.6701C84.1675 70.5796 84.8239 71.3701 85.6357 71.9768C86.4475 72.5835 87.3915 72.989 88.3904 73.1602C89.3895 73.3262 90.4137 73.2543 91.3798 72.9502C92.3458 72.6461 93.2266 72.1185 93.9504 71.4102C94.5725 70.8649 95.0559 70.1793 95.3604 69.4102C95.6572 68.6263 95.7634 67.7831 95.6704 66.9501C95.8027 65.9679 95.6169 64.9692 95.1404 64.1001C94.3607 62.7134 93.1442 61.6234 91.6804 61.0001C90.895 60.7872 90.0841 60.6829 89.2704 60.6901C88.3399 60.5974 87.403 60.7854 86.5804 61.2301ZM91.2104 64.3201C91.7151 64.6714 92.1075 65.1611 92.3404 65.7302C92.5746 66.2965 92.6407 66.9184 92.5308 67.5214C92.4208 68.1244 92.1395 68.6829 91.7204 69.1301C91.297 69.58 90.7513 69.8963 90.1504 70.0401C89.4311 70.184 88.6844 70.0878 88.025 69.7663C87.3656 69.4447 86.83 68.9156 86.5004 68.2601C86.2806 67.8255 86.161 67.3471 86.1504 66.8601C86.2755 65.8624 86.7718 64.9484 87.5404 64.3001C88.0777 63.9223 88.7186 63.7195 89.3754 63.7195C90.0323 63.7195 90.6731 63.9223 91.2104 64.3001V64.3201Z" fill="#6A6A6A"/>
<path d="M34.0003 87.6003C33.3303 88.2603 33.4703 89.2403 34.3703 90.2003L35.1303 91.0203L34.3703 91.8403C33.4503 92.8403 33.3703 93.7303 34.0603 94.4003C34.7503 95.0703 35.7303 94.9803 36.6303 94.0403L37.3803 93.2803L38.2103 94.0403C38.3977 94.2715 38.6331 94.4592 38.9003 94.5903C39.1586 94.7313 39.4462 94.81 39.7403 94.8203C40.1044 94.8247 40.4584 94.7008 40.7403 94.4703C41.0426 94.2177 41.2389 93.8608 41.2903 93.4703C41.3903 92.9203 41.2903 92.7203 40.5303 91.9003L39.6303 90.9003L40.3903 90.1203C41.3903 89.1203 41.5403 88.3803 40.9803 87.6403C40.8491 87.4519 40.6688 87.3029 40.4591 87.2095C40.2494 87.1161 40.0181 87.0818 39.7903 87.1103C39.1603 87.1103 38.8703 87.2503 38.1603 87.8903L37.3303 88.6503L36.6403 88.0003C36.0203 87.3603 35.7403 87.2203 35.1403 87.2203C34.9337 87.2067 34.7264 87.2339 34.5303 87.3003C34.3353 87.3637 34.1551 87.4658 34.0003 87.6003Z" fill="#6A6A6A"/>
<path d="M19.2404 88.7499C18.2793 89.0085 17.3856 89.4723 16.6209 90.1093C15.8561 90.7463 15.2385 91.5414 14.8104 92.4399C14.1543 94.1712 14.1973 96.0898 14.9304 97.7899C15.5596 99.0495 16.5808 100.071 17.8404 100.7C19.4342 101.326 21.1867 101.424 22.8404 100.98C24.3193 100.364 25.5484 99.2684 26.3304 97.8699C26.8038 96.9924 26.9958 95.9904 26.8804 94.9999C26.9922 94.0377 26.8292 93.0634 26.4104 92.1899C25.908 91.1846 25.1534 90.3266 24.2204 89.6999C23.2786 89.0991 22.1963 88.7544 21.0804 88.6999C20.4673 88.6417 19.8494 88.6585 19.2404 88.7499ZM22.3904 92.2899C23.0782 92.7609 23.5609 93.476 23.7404 94.2899C23.9316 95.0879 23.8099 95.9289 23.4004 96.6399C23.1263 97.1055 22.7384 97.4937 22.2731 97.7684C21.8078 98.043 21.2805 98.1949 20.7404 98.2099C19.9586 98.2266 19.1973 97.9591 18.5978 97.457C17.9983 96.955 17.6013 96.2525 17.4804 95.4799C17.4116 95.0109 17.4492 94.5325 17.5904 94.0799C17.7317 93.63 17.9708 93.2168 18.2904 92.8699C18.6196 92.5287 19.0188 92.2626 19.4604 92.0899C19.9397 91.8608 20.4706 91.7608 21.0004 91.7999C21.4964 91.8492 21.9732 92.0172 22.3904 92.2899Z" fill="#6A6A6A"/>
<path d="M29.43 26.4504C28.3667 26.7962 27.4056 27.4001 26.6326 28.208C25.8595 29.016 25.2987 30.0028 25 31.0804C24.82 31.7404 24.79 34.0804 24.79 54.2704C24.79 76.2704 24.79 76.7303 25.06 77.5603C25.3906 78.6557 25.9925 79.6498 26.81 80.4503C27.6272 81.2505 28.6307 81.8348 29.73 82.1504C30.38 82.3404 32.24 82.3604 46.89 82.3604C62.89 82.3604 63.33 82.3603 64.16 82.0903C65.2406 81.7436 66.217 81.1316 67 80.3103C67.8158 79.4719 68.4043 78.4394 68.71 77.3103C68.94 76.5503 68.95 75.4804 68.95 54.2204C68.95 32.9604 68.95 31.8904 68.71 31.1304C68.3986 30.0138 67.8114 28.9935 67.0023 28.1635C66.1932 27.3334 65.1883 26.7202 64.08 26.3804C63.25 26.1104 62.83 26.1104 46.74 26.1104H30.26L29.43 26.4504ZM63.5 29.1404C64.582 29.6494 65.442 30.5344 65.92 31.6304C66.16 32.3404 66.18 33.0504 66.18 54.2504C66.18 79.3504 66.3 76.9704 64.92 78.3604C63.54 79.7504 65.07 79.6204 46.84 79.6204C28.61 79.6204 30.12 79.7304 28.75 78.3604C27.38 76.9904 27.49 79.3604 27.49 54.2504C27.49 29.5004 27.4 31.6204 28.58 30.3104C29.2117 29.6079 30.0665 29.1452 31 29.0004C31.36 28.9504 38.66 28.9104 47.24 28.9204C62.27 28.8904 62.86 28.9004 63.5 29.1404Z" fill="#AEAEAE"/>
<path d="M39.9408 33.1404C35.8308 34.7104 34.6308 39.5404 37.3608 43.5004C38.6204 45.067 40.0794 46.4621 41.7008 47.6504C42.8708 48.6504 44.3708 49.9004 45.0208 50.4904C46.1508 51.4904 46.2108 51.5804 46.8408 51.5804C47.4708 51.5804 47.5308 51.5804 48.6008 50.5804C49.2208 50.0204 50.7008 48.7304 51.9208 47.7404C55.2808 45.0004 56.3008 43.8404 57.1608 42.0004C57.818 40.5954 57.9618 39.0044 57.5671 37.5043C57.1725 36.0043 56.2644 34.69 55.0008 33.7904C53.9134 33.0506 52.5986 32.721 51.2908 32.8604C50.4836 32.8 49.6751 32.9589 48.9508 33.3204C48.4065 33.5818 47.9015 33.9185 47.4508 34.3204L46.8108 34.9304L46.1908 34.3504C45.7357 33.9542 45.2315 33.6181 44.6908 33.3504C43.9443 32.9492 43.0921 32.7885 42.2508 32.8904C41.472 32.7829 40.6786 32.8687 39.9408 33.1404ZM53.3508 36.1404C55.2708 37.2604 55.5108 40.0104 53.8808 42.0004C52.756 43.2555 51.5174 44.4037 50.1808 45.4304C49.2608 46.1804 48.1808 47.1304 47.6708 47.5304L46.8408 48.2704L45.9308 47.4804C45.4308 47.0504 44.3708 46.1504 43.5608 45.4804C40.7308 43.1704 39.4708 41.8604 39.0308 40.7404C38.0308 38.1504 39.5108 35.6404 42.1108 35.6404C42.5478 35.6295 42.9835 35.6903 43.4008 35.8204C44.2067 36.3234 44.8575 37.0399 45.2808 37.8904C45.7108 38.7404 46.1908 39.1204 46.8408 39.1204C47.1709 39.0985 47.4873 38.9803 47.7508 38.7804C48.0192 38.5899 48.2218 38.3209 48.3308 38.0104C48.6754 37.2572 49.1886 36.5935 49.8308 36.0704C50.3693 35.7632 50.981 35.6077 51.6008 35.6204C52.22 35.6259 52.8256 35.8024 53.3508 36.1304V36.1404Z" fill="#AEAEAE"/>
<path d="M33.1302 55.9398C32.8995 56.222 32.7734 56.5753 32.7734 56.9398C32.7734 57.3043 32.8995 57.6576 33.1302 57.9398L33.4902 58.2898H38.7602L39.1302 57.9398C39.3557 57.6553 39.4784 57.3029 39.4784 56.9398C39.4784 56.5768 39.3557 56.2244 39.1302 55.9398L38.7602 55.5898H33.4902L33.1302 55.9398Z" fill="#AEAEAE"/>
<path d="M42.5003 55.9398C42.2696 56.222 42.1436 56.5753 42.1436 56.9398C42.1436 57.3043 42.2696 57.6576 42.5003 57.9398L42.8603 58.2898H60.1803L60.5403 57.9398C60.771 57.6576 60.897 57.3043 60.897 56.9398C60.897 56.5753 60.771 56.222 60.5403 55.9398L60.1803 55.5898H42.8603L42.5003 55.9398Z" fill="#AEAEAE"/>
<path d="M33.1302 63.9994C32.8995 64.2816 32.7734 64.6349 32.7734 64.9994C32.7734 65.3639 32.8995 65.7172 33.1302 65.9994L33.4902 66.3494H38.7602L39.1302 65.9994C39.3557 65.7149 39.4784 65.3625 39.4784 64.9994C39.4784 64.6363 39.3557 64.2839 39.1302 63.9994L38.7602 63.6494H33.4902L33.1302 63.9994Z" fill="#AEAEAE"/>
<path d="M42.5003 63.9994C42.2696 64.2816 42.1436 64.6349 42.1436 64.9994C42.1436 65.3639 42.2696 65.7172 42.5003 65.9994L42.8603 66.3494H60.1803L60.5403 65.9994C60.771 65.7172 60.897 65.3639 60.897 64.9994C60.897 64.6349 60.771 64.2816 60.5403 63.9994L60.1803 63.6494H42.8603L42.5003 63.9994Z" fill="#AEAEAE"/>
<path d="M33.1302 72.0004C32.8995 72.2826 32.7734 72.6359 32.7734 73.0004C32.7734 73.3649 32.8995 73.7182 33.1302 74.0004L33.4902 74.3504H38.7602L39.1302 74.0004C39.3557 73.7159 39.4784 73.3635 39.4784 73.0004C39.4784 72.6373 39.3557 72.2849 39.1302 72.0004L38.7602 71.6504H33.4902L33.1302 72.0004Z" fill="#AEAEAE"/>
<path d="M42.5003 72.0004C42.2696 72.2826 42.1436 72.6359 42.1436 73.0004C42.1436 73.3649 42.2696 73.7182 42.5003 74.0004L42.8603 74.3504H60.1803L60.5403 74.0004C60.771 73.7182 60.897 73.3649 60.897 73.0004C60.897 72.6359 60.771 72.2826 60.5403 72.0004L60.1803 71.6504H42.8603L42.5003 72.0004Z" fill="#AEAEAE"/>
</svg>
